/* XPM */
static char *c4de469fbbca480986c0263c7c82732cyrRjdt6sNUKvfl0I[] = {
/* columns rows colors chars-per-pixel */
"50 50 221 2 ",
"   c None",
".  c #1E0100",
"X  c #230500",
"o  c #260900",
"O  c #2A0E00",
"+  c #2D1100",
"@  c #311502",
"#  c #351A04",
"$  c #381D07",
"%  c #391F0C",
"&  c #371D09",
"*  c #3C210A",
"=  c #4A2500",
"-  c #41270D",
";  c #43290E",
":  c #432100",
">  c #4C3707",
",  c #593707",
"<  c #452B12",
"1  c #472E18",
"2  c #4D3415",
"3  c #4B321A",
"4  c #523A1A",
"5  c #553A12",
"6  c #502A01",
"7  c #623B02",
"8  c #693E06",
"9  c #4C3321",
"0  c #543C28",
"q  c #3C5104",
"w  c #44570B",
"e  c #5A431E",
"r  c #5D481A",
"t  c #4A5D11",
"y  c #584F00",
"u  c #6B4705",
"i  c #7A4D02",
"p  c #714309",
"a  c #7C4B09",
"s  c #724C07",
"d  c #674C1A",
"f  c #6D521C",
"g  c #785617",
"h  c #715805",
"j  c #4C640A",
"k  c #506611",
"l  c #5E731A",
"z  c #516A0C",
"x  c #637610",
"c  c #5D4522",
"v  c #634C25",
"b  c #624725",
"n  c #6A532C",
"m  c #695429",
"M  c #755825",
"N  c #644D34",
"B  c #6B5435",
"V  c #725B33",
"C  c #715734",
"Z  c #7E6A3B",
"A  c #796437",
"S  c #727033",
"D  c #6A5545",
"F  c #6B5647",
"G  c #766144",
"H  c #7A6758",
"J  c #797A48",
"K  c #845305",
"L  c #8A5705",
"P  c #925D02",
"I  c #9B6302",
"U  c #99650B",
"Y  c #8C651E",
"T  c #85621F",
"R  c #9E6B11",
"E  c #956B1C",
"W  c #877C1D",
"Q  c #A8700D",
"!  c #A8751A",
"~  c #A46B07",
"^  c #886728",
"/  c #9D7528",
"(  c #846D3D",
")  c #886832",
"_  c #83723E",
"`  c #8B703F",
"'  c #937334",
"]  c #AA7C28",
"[  c #B17E21",
"{  c #867343",
"}  c #8D7A49",
"|  c #897649",
" . c #947E49",
".. c #836E56",
"X. c #8A775D",
"o. c #897550",
"O. c #8A7867",
"+. c #927F61",
"@. c #68840C",
"#. c #6B8116",
"$. c #799515",
"%. c #779211",
"&. c #7D9823",
"*. c #7C884B",
"=. c #80951B",
"-. c #8BA61D",
";. c #8CA91C",
":. c #84A415",
">. c #95AB1F",
",. c #93B41E",
"<. c #918D22",
"1. c #AF8029",
"2. c #B6862A",
"3. c #AA992C",
"4. c #A78237",
"5. c #BA8B35",
"6. c #B78C38",
"7. c #B99936",
"8. c #AC9B30",
"9. c #95A622",
"0. c #98A424",
"q. c #A7A12A",
"w. c #A9A534",
"e. c #B0A032",
"r. c #C5973B",
"t. c #A4C722",
"y. c #93814E",
"u. c #9B8148",
"i. c #858B54",
"p. c #948352",
"a. c #9A8954",
"s. c #9B8959",
"d. c #8F975A",
"f. c #A78A4A",
"g. c #B79647",
"h. c #A08D58",
"j. c #A6915C",
"k. c #B19557",
"l. c #998976",
"z. c #999664",
"x. c #A59561",
"c. c #AB9964",
"v. c #AD9D6B",
"b. c #A89763",
"n. c #B49C63",
"m. c #AD9E73",
"M. c #98A170",
"N. c #AAA56D",
"B. c #B5A36C",
"V. c #B4A472",
"C. c #BAAC7B",
"Z. c #B6A876",
"A. c #BEB07F",
"S. c #A4A379",
"D. c #AEA54B",
"F. c #CA9B42",
"G. c #C3A159",
"H. c #C2AD78",
"J. c #C8B27C",
"K. c #C6A967",
"L. c #A69787",
"P. c #A8AD88",
"I. c #ACB38A",
"U. c #BDB387",
"Y. c #AEA39A",
"T. c #B4A89D",
"R. c #BCBE9A",
"E. c #A8B499",
"W. c #9DBAAA",
"Q. c #B3A8A1",
"!. c #B4B6AC",
"~. c #9DAB91",
"^. c #C3B483",
"/. c #C6BA8B",
"(. c #C9BC8E",
"). c #C6B788",
"_. c #D1BC88",
"`. c #CCBE95",
"'. c #C9BFAF",
"]. c #BEC39E",
"[. c #D3C18E",
"{. c #CDC294",
"}. c #CAC598",
"|. c #D4C696",
" X c #D3C69A",
".X c #D9CB9C",
"XX c #DACEA2",
"oX c #D8CBA5",
"OX c #DED2A4",
"+X c #DCD7A8",
"@X c #D3CABB",
"#X c #CFCFB3",
"$X c #E5DAAD",
"%X c #E4D7A9",
"&X c #E9DEB2",
"*X c #E7DCB1",
"=X c #EDE2B6",
"-X c #ECE4BA",
";X c #F1E6BC",
":X c #F4E9BD",
">X c #8AC7DA",
",X c #93C4CF",
"<X c #82CEF2",
"1X c #86CBE7",
"2X c #D7D1C3",
"3X c #E9DEC2",
"4X c #F4EBC3",
"5X c #F7ECC6",
"6X c #FEF5CB",
"7X c #FCF2C7",
"8X c #EAE6D5",
"9X c #FFFBD2",
"0X c #FBF2DD",
"qX c #F0E8D2",
"wX c #FAF5E4",
"eX c #FEFBEC",
"rX c #FDFBE5",
"tX c #FFFFF4",
"yX c #FFFFFC",
"uX c #F7F6F5",
"iX c #F4EEE0",
/* pixels */
"                                                                                                    ",
"                                                                                                    ",
"                                                                                                    ",
"                                                                      +                             ",
"                                                                    + O                             ",
"                                                                    & #                             ",
"                                                                  O b n -                           ",
"                                                                < b { ( * o                         ",
"                                                              + N U.B.( ; O                         ",
"                                                            @ ..).=X|.j.V 4                         ",
"                                                          < N `.9X6X%X_.n.V <                       ",
"                                                      + O G OX5X6X6X;XXX/.b.( ;                     ",
"                                                X   B +.+.U.7X_.J.=X*X|.V.| v -                     ",
"                                              3 9 9 l.7X9X9X5Xk.f.OX%XJ.b.m #                       ",
"                                      O O o + O.@X@X3X6X9X9X6X*X%X*X*X.X^.` 6 # + +                 ",
"                                    c H O.H O.'.tXeXrX7X|.K.J.;X9X&X&X&X%XB.` v ; +                 ",
"                                  % H 8XeXwXwXeX0X4X:X%X4.K Y _.:X&X&X&X%X|.J.j.n *                 ",
"    + X                     o X % L.3XyXyXtXyXeX-Xi.S 4.4.2.1.4.n.%X-X|.f.n.%X).s.V -               ",
"    & D F                   D F H P.#XR.].].].].S.l z E r.F.2.i ^ XX;X|.h.H.&XXXA.p.v <             ",
"    9 !.Q.1 & % % % % % # 0 @XrX2X*.j t z j w w z $.3.r.r.2.R u ( XX-X$XXXXX%X*X|.B.y.m $           ",
"      H L.Y.Q.Y.Y.Q.Y.Y.L.R.iX@Xd.&.$.$.%.@.@.x @.:.w.r.2.U s  .).$X-X%Xk.J *.{. XV.a.m @           ",
"      . F 2XuXuXyXyXyXtXtXtXtXP.j ;.t.t.,.:.;.;.>.>.e.2.Q i 5 Z.;X*XXXB.Y y k s.Z.C.x.A 2 *         ",
"          0 !.yXyXtXeXrXeXtXtXI.j $.t.,.,.;.;.;.0.7.2.Q ~ i , Z.;X*Xj.Y ] <.x t J {.C.h.Z 2 +       ",
"            H Q.iXyXqXJ.XXeXtXE.w %.,.,.>.q.3.e.e.2.Q I L 7 2 Z.:X$Xu.s 1.6.=.* V U.N.{ c <         ",
"            X D 8XyX3Xg._.wX8XM.j %.>.0.D.G.F.F.r.~ I I a , , s.oX%Xc.^ ] ] E u m s.a.V -           ",
"            X D 8XtXwX4XiX8X*.l =.e.r.D.W.W.G.r.r.Q I P a p 8 5 o.OX%XZ.d u L i u r a.s.V < +       ",
"            X D 0XtXrXrX@XM.x @.>.r.G.E.>X1XW.B.r.! ~ L K K 8 = n XX:XoXp.m , 7 d { V.C.y.m 2 #     ",
"            X D @X4X:X7XM.w %.;.-.e.Z.,X<X<X>XP.r.5.! U L L 8 6 C XX-X%X X .5 > { {. XU.j.y.m #     ",
"                N { K.;Xd.q $.>.;.>.w.V.,X>XS.g.5.r.] P P L 8 6 C XX$XoX.XU.m.N.U.|.{.C.N.y.m *     ",
"                o = ) $X}.*.#.@.@.:.0.8.L.P.6.6.] ] R P P L 8 6 C XX%X(.v.A.XX.X{.U.Z.N.a._ d #     ",
"                  # N $X9X+X#.q t %.-.-.8.g.5.5.] R P P L K 8 6 C XX+XB.M u.{.{.C.x.j.p.Z V c $     ",
"                & O.}.4X9X7X{.].I.S z $.4.5.5.] R U U L K K 8 6 n (.c.^ Y ^ _ j.N.y._ V 2 ; *       ",
"                # +.oX4X5X5X7X:X(.S h <.3.6.1.R P P L L p 8 7 5 o./.h.T Y g d y._ v r 2 @ + +       ",
"                  & N  X;X=X=XZ.^ / 4.7.6.] U P P P K p 8 , 2 s.`.|.^. .d d A ) c * @ $             ",
"                  . 9  X:X=X=Xn.s ] 7.6.] R P i u 7 , 6 = b p.C./.).V.p.A r 4 2 <                   ",
"                    0 m.|..X*XH.) ] ] 1.R L K s d d 5 2 2 | /.C.v.c.} V n 4 O +                     ",
"                      9 f f..X*X[.' K U I i , } C.v.y._ a.B.Z.j.} { c $ * $                         ",
"                        : M _.:X*XH.' u u s Z v.).v.G m p.c.s.V 4 4 ;                               ",
"                          1 ^.-X=X*XZ.d > f b.V.b.{ 0 * n _ A 2 + @                                 ",
"                          1 ).;X*XOXU.h.{ _ y.a.{ 4 $   - - -                                       ",
"                        N +.`.+X|.C.B.c.G m v v 4 # O     O O                                       ",
"                      + .. X X).m. ._ Z 4 @ @ @ @ @                                                 ",
"                        0 G v.V.y.c ; 1 *                                                           ",
"                          * } p.m - O +                                                             ",
"                          * A n $                                                                   ",
"                            2 1                                                                     ",
"                            +                                                                       ",
"                                                                                                    ",
"                                                                                                    ",
"                                                                                                    "
};
