/* XPM */
static char *_d60e24650f540ccc65ebbabb4b60877VXNP2pBbjvj529fH[] = {
/* columns rows colors chars-per-pixel */
"50 50 245 2 ",
"   c None",
".  c #050000",
"X  c #0C0201",
"o  c #05050D",
"O  c #140101",
"+  c #1D0201",
"@  c #180804",
"#  c #1F1200",
"$  c #040A1A",
"%  c #030716",
"&  c #180B15",
"*  c #1D151F",
"=  c #220100",
"-  c #2C0201",
";  c #270A09",
":  c #340301",
">  c #3B0401",
",  c #380A09",
"<  c #241400",
"1  c #2E1B00",
"2  c #351D00",
"3  c #3A1603",
"4  c #260C15",
"5  c #310D11",
"6  c #29111C",
"7  c #37131A",
"8  c #3B2400",
"9  c #3D2802",
"0  c #352919",
"q  c #2F2210",
"w  c #040C23",
"e  c #050B27",
"r  c #0B1324",
"t  c #0B152C",
"y  c #05112C",
"u  c #141B2E",
"i  c #1A1529",
"p  c #0D1C3C",
"a  c #0A1835",
"s  c #141C33",
"d  c #161C36",
"f  c #1B0F20",
"g  c #251829",
"h  c #351D2A",
"j  c #231C30",
"k  c #2A1E32",
"l  c #14213B",
"z  c #1C233B",
"x  c #182134",
"c  c #3B242E",
"v  c #24253C",
"b  c #2A2839",
"n  c #312937",
"m  c #2E343C",
"M  c #35393D",
"N  c #34312B",
"B  c #430500",
"V  c #4A0500",
"C  c #440904",
"Z  c #4C0901",
"A  c #410C0B",
"S  c #530B01",
"D  c #5B0D02",
"F  c #540700",
"G  c #471606",
"H  c #5B1304",
"J  c #551907",
"K  c #471517",
"L  c #4D1414",
"P  c #650D02",
"I  c #6D0F01",
"U  c #671407",
"Y  c #771707",
"T  c #721C16",
"R  c #422901",
"E  c #46240D",
"W  c #4A3101",
"Q  c #533A03",
"!  c #533500",
"~  c #442A17",
"^  c #4B341C",
"/  c #572A0F",
"(  c #65320A",
")  c #6C3808",
"_  c #773C04",
"`  c #633A17",
"'  c #6C2B0D",
"]  c #452D27",
"[  c #4B3829",
"{  c #563927",
"}  c #432839",
"|  c #562D39",
" . c #562126",
".. c #672A2C",
"X. c #684804",
"o. c #7C4308",
"O. c #7E4604",
"+. c #745607",
"@. c #674416",
"#. c #745711",
"$. c #7F600A",
"%. c #524935",
"&. c #654F31",
"*. c #726836",
"=. c #7A6D2F",
"-. c #101F40",
";. c #152443",
":. c #172A4C",
">. c #1D2C4B",
",. c #192845",
"<. c #152D53",
"1. c #1A2E51",
"2. c #1D3254",
"3. c #1E355A",
"4. c #0F2041",
"5. c #272B46",
"6. c #362C45",
"7. c #28344A",
"8. c #3A3C4B",
"9. c #323549",
"0. c #223554",
"q. c #243A5C",
"w. c #2B3D5C",
"e. c #273857",
"r. c #3B3E52",
"t. c #1F3961",
"y. c #243C61",
"u. c #293E63",
"i. c #473146",
"p. c #503643",
"a. c #39475D",
"s. c #324152",
"d. c #2C4264",
"f. c #2D456A",
"g. c #2A456A",
"h. c #344565",
"j. c #344A6B",
"k. c #394F6C",
"l. c #374865",
"z. c #344E72",
"x. c #384F73",
"c. c #365276",
"v. c #3B5274",
"b. c #34517A",
"n. c #3A557B",
"m. c #3D5A7B",
"M. c #364F6F",
"N. c #5C5646",
"B. c #43555E",
"V. c #4F4A4D",
"C. c #645B48",
"Z. c #425C7C",
"A. c #415672",
"S. c #4D5568",
"D. c #70716F",
"F. c #5A6D6F",
"G. c #851A08",
"H. c #8C4C01",
"J. c #844400",
"K. c #8A5804",
"L. c #975901",
"P. c #8B530E",
"I. c #9A6708",
"U. c #8C6713",
"Y. c #927214",
"T. c #8D670F",
"R. c #A76901",
"E. c #AC7305",
"W. c #B97C02",
"Q. c #B37801",
"!. c #AE780D",
"~. c #876722",
"^. c #A78615",
"/. c #AF890F",
"(. c #B48C26",
"). c #AC9518",
"_. c #C88801",
"`. c #C99901",
"'. c #D99A01",
"]. c #D29A1D",
"[. c #E09F00",
"{. c #C9A400",
"}. c #D2A800",
"|. c #D9A81A",
" X c #E3AB01",
".X c #C79E2B",
"XX c #D1AB2F",
"oX c #E2D005",
"OX c #8A8971",
"+X c #B7A65D",
"@X c #CFB04B",
"#X c #CDAE65",
"$X c #3B5A83",
"%X c #435D81",
"&X c #44638B",
"*X c #4D698D",
"=X c #4A6588",
"-X c #576C89",
";X c #4D6B92",
":X c #466692",
">X c #516D93",
",X c #597495",
"<X c #58769A",
"1X c #4F7095",
"2X c #647B98",
"3X c #6A748C",
"4X c #5E7DA6",
"5X c #637FA2",
"6X c #6F8390",
"7X c #6986A8",
"8X c #748DAC",
"9X c #7794B7",
"0X c #7391B1",
"qX c #818D97",
"wX c #8E8F8E",
"eX c #8595AD",
"rX c #8A9DB9",
"tX c #949CAC",
"yX c #93A6BA",
"uX c #DAC688",
"iX c #E7D99F",
"pX c #849FC2",
"aX c #8AA7C7",
"sX c #94ADCB",
"dX c #9BADC5",
"fX c #95B2C9",
"gX c #A4B5C9",
"hX c #ACBBCF",
"jX c #A3BAD6",
"kX c #ABC1DC",
"lX c #B8C7DA",
"zX c #B7C1CC",
"xX c #B7CDE7",
"cX c #B5CBE5",
"vX c #9EC5DC",
"bX c #CAD3DE",
"nX c #CCD3DD",
"mX c #C6D6EA",
"MX c #D6DDE7",
"NX c #C3D8F1",
"BX c #DCE2EA",
"VX c #D7E0EB",
"CX c #D6E4F4",
"ZX c #E4E8EF",
"AX c #EAEEF2",
/* pixels */
"                                                                                                    ",
"                                                                                                    ",
"                                                                                                    ",
"                                                                                                    ",
"                                                                                                    ",
"                                                                                                    ",
"                    o % o . . . . . . . . . .                                                       ",
"                  z l t & + + O O O O @ + + O X                                                     ",
"            r w w k.=X0.7 Z B : - - > Z C : - O X X X . X X . X X X X X X X . $ $                   ",
"          o A.F.v.v.l.c L V > : 3 G S S G G S C : - = + : : - + = : : : - & s a.d.$ . . .           ",
"        x s.<X9X,XB.c H V B B 3 2 J J C 2 G U U S B > > Z F > > C D D S , n h.*Xa.% X X X X         ",
"      o k.fX,Xt.e.| Y P B > P H 2 8 3 2 2 R Y P C : B S V > : J U H F , v v.>Xj.v + = = + O .       ",
"      o 7.,Xc.<.2. .Y P > : P S 8 X.#.Q R G H V > D P D B C U Y I S , n -X;Xx.v & = - - = = + X     ",
"      d >.l.Z.=X%Xp.L L , 5 L G R Y.!.+.W 3 , , B G.Y F : S G.G.P A n &X9X*Xz ; - = : : ; ; ; X     ",
"    ,.-XrXkXnXVXMX3Xw.e.e.e.w.n 8 +.$.X.E q 9.k > D P B : B P D 3 v 7XaXm.v ; : - = : 5 d s t $     ",
"    4.A.8XfXhXhXhXpX9X9X9XrXrXqXD.@.! W &.qXeXS.g h h h g h c h b 3.1X6Xv & = 4 6 * 4 b 2.:.s w     ",
"    a a 1.f.x.k.v.rXNXNXVXAXAXCXzXN.1 0 wXCXZXeXn.m.m.n.$X$Xb.b.b.b.y.;.& = 4 d :.:.:.1.d.0.l w     ",
"        e f ^ ` { S.4X4X5X5X7X5X<XM.e.a.=X4X7XdXbXmXcXkXjXsX9X0X7X,Xf.-.d u 5.u.j.u.u.e.<.:.p w     ",
"        ! _ H.L.L.&.r.8.i.r.8.8.9.r.s.V.8.9.9.qXlXbXhXjXjXaX0X8X7X,Xx.e.y.0.0.f.f.u.y.7.n c i &     ",
"      O X.'././.[.E.o.o.o.) J.J.) ( ( ) ' ' ) V.v.n.n.b.n.b.z.b.z.z.b.v.v.j.u.1.,.,.>.n ) ( E <     ",
"    $ t N =..XXX_.}.{.I.Q._.L.E.`.I.H.R.H.L._.P.] { [ ] { { ] { { [ 9.q.t.3.0.] ~ K ~ ( J._ / -     ",
"    w a.j.0.OX+X~.{.oX(.].[._.`. X.X(.Q.W._.[.!.P.H.K.K.H.H.H.H.J._ { b b b N ) _ _ J._ ` ( E ;     ",
"    x 9X0X2.l.v.v.=.(.iX#X/. X'./.uXuX!.'.[.!.@X@X!.{.oXQ.W.'.R.L.E.L.o._ ) ) O.L.L.H.` b d s a     ",
"    u rX9Xq.$X0XaXD.C.qXD.N.=.*.N.6XOXN.*.Y.}.|.XX`.}.}.`.'._.W.R.Q.Q.R.R.H._ ` [ %.[ M e.1.p a     ",
"    u 0X7Xq.1XfXcX0X%X:X>X>X>X>X*X-X*X;X:XD..X/.Y.).^.U.^.^.U.Y.Y.K.Y.I.T.+.` 9.<.<.<.3.w.0.l a     ",
"    u 0X7X3.z.$X;XpXxXxXmXMXVXVXBXVXVXVXmXdXF.B.l.S.B.l.B.B.B.s.M m M M m b 7.j.j.w.d.q.:.;.t o     ",
"    u 6X<X2.v b 5.3XsXaXdXgXgXgXgXgXgXgXfXaXpXrXrX9XpXpX4X1X%Xy.d.1Xz.<.y.y.0.u.f.e.y.5.i f & .     ",
"    t =X*X>.7 > : 5.f.f.u.j.u.j.f.f.d.j.d.-XMXAXZXmXxXxXsX0X2Xw.Z.vX,X2.z.j.u.,.-.;.,.i - - = X     ",
"    r =X*X>.K V : 5 7 7 7 6 7 7 7 6 6 7 7 i.-X5X5X<X1X4X;X%X$Xt.m.sX1X:.2.2.,.g 4 & 4 ; = : - O     ",
"    r Z.&X>.K Z : > V V : : B V B : > F Z , k 5.5.5.5.5.5.6.5.,.m.aX;X;.s i g ; - + - - + : : X     ",
"    r k.n.5.K Z : Z D B > : S S B : > F V B - , V C > - , C A j n.aX>Xd ; : - > - = : : = , , O     ",
"    r M.c.2.K D : Z H V : : H H B : > S Z > : B F V > : V F B j z.7XZ.d 5 - = > - = > > - & f $     ",
"    r k.c.7. .P : H Y F > > U U B : > D Z > : B D V : : Z S A j f.<Xv.v , - = > : = 5 7 4 u a e     ",
"    r k.c.>...Y : U G.P > , Y Y B : C U S > : V F Z : : S F C j f.4Xm.5., - = , : ; s ,.;.,.l e     ",
"    r k.c.1.i.i.5.6.p.6.6.6.i. .V : G G.I B : Z H V : : S D C j d.*Xc.v , > ; 6 i u 0.q.q.,.t e     ",
"    r k.c.2.z.&X>X,X,X,X$Xl.:XS. .: L T T K 6 L U S > > U U V k d.Z.g.z 7 5 4 >.3.2.0.e.e.p $ w     ",
"    r s.g.2.,XsXxXVXZXZXOX[ dXpXa.7 0 h.j.u.u...G.I B > Y G.F k y.Z.d.:.z l ,.l.k.w.p t t           ",
"    $ x l a l.-X6XtXyXwX&.~ D.F.m q %.9XsXsXgXD.| } k b | p.} 5.d.%Xg.1.d.d.q.0.5.,.t               ",
"    $ $ $ $ y a p <.e.^ R 8 R R R 2 C.hXMXBXnXtX&X%X:X&X$X$Xb.3.q.m.d.2.j.j.2.a w w                 ",
"                  $ N ^.P.R X.+.) R ~ %.V.a.l.tXMXxXxXkXaX8X,Xu.3.M.d.;.a s t                       ",
"                  R #.(.Y.@.$.+.Q ! 8 # o e e 3XtXeXeX8X2X-Xm.>.l ,.l a w $                         ",
"                X #.^.Y.Y.$.+.Q R W R @       p l p l p a a a r $ $ $ $                             ",
"                X 9 X.Q Q Q W Q ! 2 #                                                               ",
"                X # # # # < < 1 R #                                                                 ",
"                . @ X @ X @ X @ @                                                                   ",
"                                                                                                    ",
"                                                                                                    ",
"                                                                                                    ",
"                                                                                                    ",
"                                                                                                    "
};
