/* XPM */
static char *_62e8cd06c2d4be7b4614a34a4b2c451w2TU6q9XfMz9J8bt[] = {
/* columns rows colors chars-per-pixel */
"50 50 241 2 ",
"   c #005F99",
".  c #005796",
"X  c #00609B",
"o  c #066998",
"O  c #005EA5",
"+  c #0065A4",
"@  c #016AA4",
"#  c #0066AD",
"$  c #016CAC",
"%  c #096AA8",
"&  c #146EA3",
"*  c #0271AC",
"=  c #0A73AB",
"-  c #0777A7",
";  c #0066B2",
":  c #006CB2",
">  c #016DB9",
",  c #0173B4",
"<  c #0A74B5",
"1  c #0479B5",
"2  c #0B7AB3",
"3  c #0174BB",
"4  c #0976BC",
"5  c #027ABD",
"6  c #0B7BBB",
"7  c #147DB5",
"8  c #1A7EB4",
"9  c #137BBB",
"0  c #1C7EBC",
"q  c #1276BA",
"w  c #0175C2",
"e  c #017CC3",
"r  c #0B7DC3",
"t  c #027DCA",
"y  c #0B7DCA",
"u  c #0676C6",
"i  c #167EC7",
"p  c #017ED3",
"a  c #0C82BD",
"s  c #0884BB",
"d  c #1483BC",
"f  c #1A84BD",
"g  c #1786BA",
"h  c #2586B8",
"j  c #0382C5",
"k  c #0B83C3",
"l  c #0C8AC5",
"z  c #0283CC",
"x  c #0B84CB",
"c  c #038BCD",
"v  c #0C8ACC",
"b  c #0789C3",
"n  c #1385C4",
"m  c #1A85C3",
"M  c #128AC4",
"N  c #1C8BC4",
"B  c #1385CA",
"V  c #148CCD",
"C  c #1B8BCA",
"Z  c #0692C9",
"A  c #1593CD",
"S  c #1C91CC",
"D  c #1C91C7",
"F  c #0285D2",
"G  c #0A85D1",
"H  c #038AD3",
"J  c #0B8CD4",
"K  c #038CDA",
"L  c #0C8CDB",
"P  c #0984D9",
"I  c #138CD3",
"U  c #1B8CD3",
"Y  c #128EDA",
"T  c #1185DC",
"R  c #0B91D5",
"E  c #0592DB",
"W  c #0C93DB",
"Q  c #0998D7",
"!  c #1392D4",
"~  c #1B94D4",
"^  c #1395DC",
"/  c #1C95DB",
"(  c #149ADC",
")  c #1B99DC",
"_  c #1899D3",
"`  c #238BC5",
"'  c #238DCB",
"]  c #2C8AC8",
"[  c #318DC7",
"{  c #2492CC",
"}  c #2994CC",
"|  c #2A96CA",
" . c #339CCE",
".. c #3799CF",
"X. c #218CD0",
"o. c #2394D2",
"O. c #2995D5",
"+. c #239AD6",
"@. c #2C9DD5",
"#. c #2495DA",
"$. c #249BDB",
"%. c #2A9DDB",
"&. c #2B96DA",
"*. c #3395D4",
"=. c #339CD4",
"-. c #3B9DD5",
";. c #339EDB",
":. c #3A9EDA",
">. c #16A1DB",
",. c #34A1CD",
"<. c #2CA2D4",
"1. c #24A1DC",
"2. c #2DA1DC",
"3. c #33A3D5",
"4. c #3BA4D6",
"5. c #33A3DC",
"6. c #3CA4DC",
"7. c #3AAADE",
"8. c #36AADD",
"9. c #0B8DE1",
"0. c #0089E1",
"q. c #0391E2",
"w. c #0C96E2",
"e. c #0E9BE5",
"r. c #0B9BEA",
"t. c #1396E1",
"y. c #1997E3",
"u. c #159BE3",
"i. c #1C9DE3",
"p. c #1D9EEC",
"a. c #149EEB",
"s. c #0F9BF0",
"d. c #229DE2",
"f. c #299EE9",
"g. c #349CE3",
"h. c #15A3E4",
"j. c #1BA1E4",
"k. c #15A2EA",
"l. c #1CA3EB",
"z. c #1FA8EE",
"x. c #1CADF4",
"c. c #0EA1E6",
"v. c #23A2E3",
"b. c #2CA3E3",
"n. c #22A5EC",
"m. c #2CA6EA",
"M. c #24A9ED",
"N. c #2CAAE9",
"B. c #33A4E3",
"V. c #3BA5E3",
"C. c #34AAE5",
"Z. c #3BABE4",
"A. c #33A5EB",
"S. c #33ABEB",
"D. c #3AACEB",
"F. c #3EA5EA",
"G. c #36B2ED",
"H. c #3CB3ED",
"J. c #24ABF2",
"K. c #28AAF7",
"L. c #35ACF1",
"P. c #3BADF3",
"I. c #2BB2F9",
"U. c #29B2F2",
"Y. c #34B2F2",
"T. c #3CB5F4",
"R. c #32B3FB",
"E. c #3DB5FB",
"W. c #3DBAFB",
"Q. c #37B8FC",
"!. c #409CCB",
"~. c #43A2CC",
"^. c #49ACDD",
"/. c #45A5DB",
"(. c #49B7DD",
"). c #55B7DD",
"_. c #52A5CF",
"`. c #42A5E2",
"'. c #43ADE4",
"]. c #49ABE2",
"[. c #43ADEA",
"{. c #47ABE9",
"}. c #57ABE3",
"|. c #45B4E3",
" X c #4AB3E5",
".X c #44B3EC",
"XX c #4AB4EA",
"oX c #45B8ED",
"OX c #4CB9ED",
"+X c #53B5EC",
"@X c #53B9EB",
"#X c #59BBEC",
"$X c #57B6E6",
"%X c #47AEF2",
"&X c #43B4F2",
"*X c #4BB5F3",
"=X c #45BAF3",
"-X c #4BBBF4",
";X c #43B5FC",
":X c #44BBFD",
">X c #4BBDFB",
",X c #54BCF4",
"<X c #53BDFA",
"1X c #59BEFC",
"2X c #56B9F5",
"3X c #6CBCED",
"4X c #56C2DF",
"5X c #5BC5EC",
"6X c #4DC2F4",
"7X c #45C2FE",
"8X c #4CC2FE",
"9X c #4FCAFF",
"0X c #5CC2F6",
"qX c #53C4FD",
"wX c #5AC5FE",
"eX c #53CAFF",
"rX c #5BCBFF",
"tX c #54C2F4",
"yX c #56D0FF",
"uX c #5DD3FF",
"iX c #5BDEFF",
"pX c #64C2EC",
"aX c #62C2F4",
"sX c #63C6FD",
"dX c #62CCFE",
"fX c #6ACBFD",
"gX c #69C7F4",
"hX c #63D2FF",
"jX c #6AD3FF",
"kX c #6BDAFF",
"lX c #66DCFF",
"zX c #71D2FF",
"xX c #72DBFF",
"cX c #7BDAFF",
"vX c #7CD3FF",
"bX c #6BE1FF",
"nX c #73E3FF",
"mX c #7DE5FF",
"MX c #77EBFF",
"NX c #84E3FF",
"BX c #84ECFF",
/* pixels */
"fX=.v H F E E j f .X;.1 j R H Q q.J |.5XuX( c H G z L T G Y Y : 5 $ , A.kXsXOXsXO.3 t L K L J : ~.pX",
",XrXd.j E z 5 V 4.jXdXC.2.+._ v.K.i.@X5X3.A u.c z e H z t W ) ) V #.D.>XD.6 $ N D.O.j z G t t b.4.@X",
"3.kX:X) v 1 +.eXtX<X7.7.uXdX5.g t 4 ^.zX4._ +.! Z j R z j j 1 ( Y.9X:X! , v ! 5 $.:X~ > V b.%.&Xb c ",
"n A.;X7X+.M 6XeX$.#.6 $ 1 d { Z.> 0 & $XmX8Xa Z.l s _ ~ y.v 1 j.T.l j ) ^ H H z y L.2.S ;.-X%.{ ( E ",
"e 5 B qXrX.X8.1 e t.I.L./ e r %.%Xi /.NX] X.H..XdXqX1X;X;XA.B B.T.j v n.w.w z q.I j %.jX=.f $ $ ) v ",
"w 3 $ N dXwXk 1 r.F w w e e 3 3 X.cXfX[ > O 4 <X~ C w y #.g.[.-Xb.N.v.H e K r.K L 5 D.BXf @ 1 3 b._ ",
"w e 4 @ 6.qX/ n.z e e t e 3 5 > N jX/.. y y > 9 u.p.z I / B.>X=.5 , 3 I y.z w z z k *XNX7 m i.L ! x ",
"p ; n $ m uXR.w.k 5 1 1 , 4 4 1 2 OX^.+ G u w B q.x.E l.i.>.6X* : x 5 > t z t L ^ 5 =.BX..@.y.s.e e ",
"6 3 e $ 8 cX0X~ j.s , 3 4 U m.j.) C.bX3., r ; L.x e R z.( ! rXS v.) c 3 3 e G F v +.hX|.N C + t 3 4 ",
", 3 y 5 ` xX=X~ Z j y I y B I j _ * rXoXr x e v J j z R c _ uX` k x I ~ y 3 e I @ B.qXN * r 5 w 3 w ",
"9 5 3 : f dXS.J.h.( i.d.I t t 5 # X OX| #.d.! ~ 3 t R W j S tX7 ; > r B 1 # , @..XkXeX.X5.k e e u e ",
"< 3 5 5 %.dXv.l.k.W P z e w t z i 7 kXf # x U.5 z 3 e w j %.jX^.g.g.[.{.V.;.{.wX=X.XO.T.qXd.z G 3 3 ",
"9 1 3 1 O.-Xk z R F e w e t J ^ ; *XkX@ B e e >.e , j x v M '...V.{.%X*X0XwX,X`.l 1 1 v L.E./ / A A ",
"<X;X:X;X,XjXC j z z z j J G t x B 8.hX3.#.e x >.#.$ e d.eX>X3.X q = # = X.'.=.= ! 5 J ) N.P.D.<XhXuX",
"m o.;XwX#XgXf + 5 v j j v e 5 x S.6X|.<.;X/ > A ` O.8XY.d.~ <XjXo.a + < ;.&X5.6 H e z J.d.%.tX0XN N ",
"< , C ` h gXaXwX! v.) ! d.) f.qXL.A g g #.;XS.I fX[.B.6 e B C 1 oX@.N B.>X>X#.> t k.K t.t o.wX& , , ",
"2 1 x ^ x , U qXxXtX~.tXeX:XE.9 1 : I e ) rXNXgXW U.j z J e x # _.NX+XV.3 #.U 3 n 5 ( z.z ) H.| 3 z ",
"k 3 3 J ^ v e 6 <.(.| g 1 x r < r 5 3 # 3 C 2X!.z n.J H z > x 3 ~.pX7 , u d.B 3 5 v t.u.z j B..Xt G ",
"z e w F u.p.^ j 5 5.'.6 > e 5 9 > r 3 e y $ ].[ z j.c J t.J i.W ^.| * 1 5 ! ^ ; , R H w.W 5 2.>Xz F ",
"z z z z F W l.I.Q l -Xn I e 6 $ , 5 w y 6 # XX].R j.J Q l.p.z.u.<.Z._ s S.k : j e J t w.l.v.S.D H H ",
"z z c J R J W l.I.5 2.;.w w 3 # B $ 3 # ; 9 V.`.j i.) ! J z H E N.A 7XW.N.e v e H F z J R T.8X* H J ",
"z j ~ T.9XW.N.) h.s ' wX> t w n 6 $ #.O.Z.*X6.2 3 k j z c F z K c i.N.~ E./ 3 ! H e H 5 1 >XlX{ e e ",
"b $.=XeX6X=XH.G.b 5.=.`.u u 5 5 $ { <X<X1X@X.X@ , > : 3 L w.H F K j ( ~ b.S.) z F e i.k a rXjXXXx w ",
"M qXnX(.- o D G.G.kX3X% i ; x , C wXtX} = = *X` < 4 r y G G p K z H ^ v C.:X! x K W E.+.V.kX/.4.D./ ",
"cX'.+.R 3 t Y z r.S.0Xo 2 G # % ).4.s j.j u *.}.4 4 3 t I t e w.x H z ! N.H.oXyX6XH.1.7X6Xd 5 L { *X",
"4.d A ( e y L z 3 A fX$XC O r V.sXZ.l Q 3 5 m ] *X%.4 3 V ! c e x e 5 e 7XC.A a { b.>._ | @.l w @ } ",
"9 , b ^ t u G J w.e } 0XqXP.rXwX=X) v a * w > 5 0 {.sXV., 5 #.m.N.b.m.~ yX) l l 5 ( u.j s qXB > f +X",
"4 , z ( G u e z F 3 6 o.D.qXwXb.u.j ~ d * k 3 e 8   f 1XsX&XD.P.D.B.&X&XT.k e z j W a.R n rXr e @ $X",
", , j ^ I u 3 3 ; e ! 3 o.*X9 $ z z v.C , 5 3 z   6.rXV.C D.;Xr %.k @.rX%.I z > z H a.^ V rX, t 7 2X",
"{.@.V e u > 3 e V G K e Z.kX{ ) j e $.x , , k v qXC.#.#.B > 5 x ~ 5 S jXN U Y t.3 F k.J M rXx G 6 o.",
"vXsX@.1 ; > 4 y 6 P 0.F N 0XoX7X~ V J e t 3 <.<.v.! 5 5 z F L p.! e a V.f 4 r f.k v u.j S 8XY F 3 y ",
"3X3X7.i 4 r 3 w 4 9.0.K 2  XoXk qXS.J p L j oX(.j H H c q.K F w.u.j $ ` ].C # e <.Z R 5 _ D.J F F i.",
"z ) M 5.d , 5 3 u r.j 5 O.%Xy z |.MXS _ %.2.mX .t H G I x 3 e e >.( # r *.fX .(.2 h #XXX7XH F e 4./.",
"( / o.rX.Xo._ Q.I.W ! a *XD.x z @.eX=XyXuX8XrX .F L t 3 3 e e $ E ( 5 9 } 0X=.|.6XtXfX4.A R U.S.D.d ",
"H 3 k |.6.` # k U > %.Z.<XX.e J +.A $.) ~ $.B.;XW p.l.y.G e 5 e d.z # = 4.`.d ' C.hX X2 k $.2.,X>.j ",
"3 # 4 n 5.0X=.N i m @.mX<X#.! x.l 3 v s 5 v ~ :Xm.I ^ p.W 5 : I f., 9  .sX=.> y v |.kXhX7X9XrX-.y.t.",
"t e r # C rX<X[.sXdX3.kX].4 ! 3 3 e 5 e 5 j ! i.lX~ 5 z u.) k $.y 4 5.'.oXr > y k =XZ.@ ! j 3.cXy t ",
"t e J 3 5 r k B 4 n 1 3.6.% T.z w x : : : : J x rXo.v 5 ! U.~ @.{.;.;.1 1 4 e e 1 { qXV v : Z.jXC ; ",
"e z W w.u.e J x 3 v ) Z.`.q #.5 w w 4 r n 5 j e aXOXeXT.W.yX=XqXBX|.N ; w P L v l =XS.5 w.t V dX,X{ ",
"W J z e E e w.z 9.H v Z.`.1X&.) x > , 1 1 5 t ^ $Xh <.+.b.D.{ |.5X- ; G 9.F e Z D.>X#.3 H w.j N '.XX",
", B 1 r V t 9.P o  .V.k a a Z.,.X.+ 8 -.+XaX$X1Xy.t z F e d.y A.E.> P 9.w.H c.U.1.8Xx w u P F P _ uX",
";XA.B.4 , y w 9.=.Z./ 3 e ; @. X:Xf.<X*X7 < B m F e E E R R.Y d.:X~ V , e >.A * Z.C.6 B w w w J 6 wX",
"D.S.-XB.[.<XB.&XE.5 > u u i 2X[ 7XP.1 # 5 3 3 3 W c c s e x.W u.f 7.wX>XZ.-X.XtX| 2 . r r , , , n @X",
"A #.1 m :.:.].*.c N.i.y > : *.{.C , , C , ; ^ t 5 s Z c Q l.R L <.-X8.@.<.*X[.rXdX=.2 7 + + d 9 g.'.",
"M 2.D V.-X%X+X/.>.b +.$.  7 0X4.%.6.@ = ` # , ~ $./ m.v.) x 3 w M 9X2.s a B.B 4 7 =.wXfX2X1XcX|./ B ",
"@ a D.S.L.T.#.D.iXyX<.6XkXnXuX6XwXrXdXrX| d D.uXqXE.;Xb.X.# = q 1 eXuXeXT.C 3 e n m ' 4 < } +Xg 3 , ",
"6.5.A.z e R J I.6X6XtXkXC.+.) j z $.2.B.uXrX~ I z Y m.A.T.O.*.[ sX X .OXrXn 3 y 3 # > $ r C '.g ` } ",
"{.%Xt e F c h.c.a wX*XB.w x F H F q.i.j v.7Xd.v F ! l.~ Z.5.#X/.}.h   h sX*.` # e w G y 6 X @.7.gXgX",
"t z ^ z.u.Q h.k.s 7X! z F H H H p Z H L ). XT h.n.u.u.W ^ x $ 3 $ , e , h #X= > , 3 w z t z W d.zX@.",
"z J j.a.W l.J.k.a 9X! z H J z F p Z F Y 5X$XP Q R c F H u.y.e r 4 3 e 1 =.zXm 6 4 5 e x F z c L sXo."
};
