/* XPM */
static char *_b0106ef3d874ddaf84469bcbb5f5a23m89J3Sp8NOTYVE7l[] = {
/* columns rows colors chars-per-pixel */
"50 50 214 2 ",
"   c None",
".  c #16151E",
"X  c #1B191D",
"o  c #1E171B",
"O  c #231B1D",
"+  c #2B1D1C",
"@  c #301E1B",
"#  c #3A1F19",
"$  c #2D211D",
"%  c #25201F",
"&  c #33211C",
"*  c #3A221C",
"=  c #3B261A",
"-  c #3F341D",
";  c #1D1C22",
":  c #171621",
">  c #231E21",
",  c #291E20",
"<  c #381E21",
"1  c #1E2025",
"2  c #1F2630",
"3  c #222124",
"4  c #2B2122",
"5  c #23252A",
"6  c #24292F",
"7  c #2B292E",
"8  c #332421",
"9  c #3B2322",
"0  c #352A23",
"q  c #3B2C26",
"w  c #372B29",
"e  c #272D33",
"r  c #2B2E34",
"t  c #202B36",
"y  c #2A3036",
"u  c #2C343B",
"i  c #2A343A",
"p  c #34363C",
"a  c #3B3A3E",
"s  c #3C312B",
"d  c #422A17",
"f  c #43261B",
"g  c #44291B",
"h  c #4C2A1B",
"j  c #482A18",
"k  c #532C1C",
"l  c #5A2E1D",
"z  c #572A17",
"x  c #4B311B",
"c  c #5C311E",
"v  c #563619",
"b  c #62341D",
"n  c #643316",
"m  c #7C3815",
"M  c #602F18",
"N  c #432C23",
"B  c #4C2D21",
"V  c #452B2C",
"C  c #482628",
"Z  c #532F21",
"A  c #54292B",
"S  c #592424",
"D  c #43342C",
"F  c #4B3328",
"G  c #533223",
"H  c #5C3321",
"J  c #583829",
"K  c #473636",
"L  c #553B3A",
"P  c #402E32",
"I  c #6D2726",
"U  c #7C2E2B",
"Y  c #702A29",
"T  c #653621",
"R  c #6B3A23",
"E  c #663924",
"W  c #733E25",
"Q  c #673935",
"!  c #773835",
"~  c #4E451E",
"^  c #554819",
"/  c #664817",
"(  c #7B4F10",
")  c #7A4A15",
"_  c #64561D",
"`  c #615216",
"'  c #7D5012",
"]  c #7A6B15",
"[  c #4F4624",
"{  c #564B23",
"}  c #564236",
"|  c #4D4239",
" . c #764026",
".. c #784227",
"X. c #664B36",
"o. c #77573C",
"O. c #685821",
"+. c #2E3A41",
"@. c #273644",
"#. c #363B43",
"$. c #3A3C43",
"%. c #253E50",
"&. c #423E42",
"*. c #483C42",
"=. c #35434A",
"-. c #3B454C",
";. c #3B454B",
":. c #3D4D55",
">. c #3E4F58",
",. c #3E5058",
"<. c #2B4052",
"1. c #444449",
"2. c #574945",
"3. c #464B53",
"4. c #494D53",
"5. c #43535C",
"6. c #4B545C",
"7. c #52565C",
"8. c #565558",
"9. c #524E50",
"0. c #675E5C",
"q. c #7D644D",
"w. c #465760",
"e. c #465962",
"r. c #4A5B65",
"t. c #4C5E69",
"y. c #4B5761",
"u. c #5A5D62",
"i. c #525C64",
"p. c #4E616B",
"a. c #51646E",
"s. c #5E636A",
"d. c #5E6167",
"f. c #536670",
"g. c #566973",
"h. c #5B6B74",
"j. c #62676C",
"k. c #656C76",
"l. c #676D77",
"z. c #63737B",
"x. c #6B747B",
"c. c #767578",
"v. c #873E15",
"b. c #832E2B",
"n. c #8B302D",
"m. c #92312D",
"M. c #883935",
"N. c #923D38",
"B. c #A3342F",
"V. c #A53530",
"C. c #AA3631",
"Z. c #AE3C35",
"A. c #B13F37",
"S. c #945F0D",
"D. c #995B0D",
"F. c #954415",
"G. c #975A17",
"H. c #8A4715",
"J. c #9F6518",
"K. c #8B6E13",
"L. c #A9680B",
"P. c #BA720C",
"I. c #82413D",
"U. c #A7433C",
"Y. c #8C6F21",
"T. c #C77709",
"R. c #994C44",
"E. c #BC4D44",
"W. c #976540",
"Q. c #A17149",
"!. c #C35B50",
"~. c #928010",
"^. c #B8980D",
"/. c #AA9218",
"(. c #B1931E",
"). c #B29F1A",
"_. c #B38918",
"`. c #BFAB14",
"'. c #DE980D",
"]. c #DF940C",
"[. c #C2981A",
"{. c #DC9E13",
"}. c #E1990D",
"|. c #F29D09",
" X c #E29D10",
".X c #D2AA12",
"XX c #EEB716",
"oX c #E8BC1B",
"OX c #F5B713",
"+X c #F5B717",
"@X c #F1A818",
"#X c #AFA96C",
"$X c #6E7683",
"%X c #767C84",
"&X c #758289",
"*X c #7B868B",
"=X c #838489",
"-X c #8A9498",
";X c #919599",
":X c #848D91",
">X c #929CA1",
",X c #9DA5AA",
"<X c #AEB5B9",
"1X c #B4BABC",
"2X c #BABFC1",
"3X c #BDC2C4",
"4X c #C5CACC",
"5X c #C4C9CA",
"6X c #D1D6D7",
"7X c #CED2D4",
"8X c #DFE3E3",
"9X c #FDFDFD",
"0X c #F4F5F4",
"qX c #EAEBEB",
/* pixels */
"                                                                                                    ",
"                                          9 V V                       |                             ",
"                                        < N.!.M.                    | q.                            ",
"                                        C M.! n.Y S C               F o.                            ",
"                                        + 9   C n.m.Y             3 0 F % O 3                       ",
"                                        ;       < 9 9           g G.J.F.F.c >                       ",
"                                                                , k ^ h k &                         ",
"                                        D                         B W. .T +                         ",
"                                      s J X                       F o.T G                           ",
"                                  1.r A Q Q 7 ;.5                   $ 0 O                           ",
"                                3.t.*.U.E.R.-.5.                X X 3 w X X : X X ; X X X X         ",
"                              #.t.K n.C.U p =.5             3 3.r.r.r.e.r.w.r.i.w.r.r.r.6.=.        ",
"                              #.w.C V.C.Y =.+.            #.i.h.f.f.f.p.g.h.f.p.g.g.a.a.,.p         ",
"                              p 5.V C.C.Y $.=.3         p t.z.<X$Xp.p.e.h.<Xh.r.a.a.r.-.e           ",
"                              u :.P m.V.Y $.:.i         3.p.*X3X*Xp.e.e.&X3X*Xp.r.p.:.y             ",
"                                e e < S S 8 e i 1       r.p.w.r.-X>X>X>X>Xp.5.r.r.,.i               ",
"                                      4 q ;           $.g.r.r.a.<X9X9X9X1Xa.a.p.p.=.1               ",
"                            > 5 5 , 4 4 9 > 5 5 3     y.a.r.t.,X6X-X5X-X7X;Xp.p.,.i                 ",
"                            r i.6.L R.R.R.K w.t.r   5 w.p.r.t.4X6Xh.1Xk.5X1Xr.6.,.5                 ",
"                          y y.t.*.m.A.U.! 1.w.#.    5 w.f.r.r.<X0X6X8X6XqX>Xr.p.,.6                 ",
"                        7 5.p.$.U C.V.U $.w.+.      5 5.r.r.e.&X6X3X5X2X3X$Xe.r.,.i                 ",
"                        u a.5.A V.C.B.V r.t.+.      5 ,.e.g.-X>X-X0X9XqX:X;X-Xg.e.=.1               ",
"                        r e.>.A C.C.V.V t.t.+.      5 ,.p.g.3X*X&X3X5X2X&X*X3Xg.e.,.e               ",
"                        r a.5.A C.C.V.V w.r.+.        =.e.p.z.$Xg.h.z.h.g.z.z.e.p.e.u               ",
"                        r t.5.A V.C.V.V 5.r.>.y       y w.g.p.r.r.t.e.t.e.t.r.r.f.p.:.e             ",
"                          #.5.;.U C.C.b.$.e.w.-.e       =.6.e.e.e.r.e.e.e.e.r.w.r.e.e.-.e           ",
"                            +.u A I I I C r +.+.y 3       6 +.+.u +.+.+.+.+.+.+.+.+.+.+.i 6         ",
"                              ; > > O , 8 X ; ; ; ;         ; ; ; ; 3 0 : 1 ; ; ; ; ; ; ; ;         ",
"                                      D X.                          D X.                            ",
"                X ; > ; ; > ; > > > ; 7 K ;             O % O O O O D o.; O 1.;X:Xl.l.l.k.k.l.l.;.  ",
"              #.i.  $X$X$X$X$X$X$X$X$X$X$Xl.r         f G.J.F.F.F.m F o.z z p d.u.4.3.3.4.3.3.4.r   ",
"              7 p 5 $.$.$.$.$.$.$.$.#.$.&.#.,         $ j v h h j # q X.+ + #.5 . #.3 : #.; . ;     ",
"  ;               3 y X X ; . . . . . 4 N : o         3 & f * f * & x k = & [ ~ ~ [ ~ ~ [ ~ ~ -     ",
"  O k / n M n l & [ [ : 0 _ _ _ _ _ _ _ _ _ {         ; N = N 0 B M D.F.n _ oXXXXXOXXXXXXXXXXX/.    ",
"    H.G.H.v.H.m j _.+X  @XOXXXOXOXOXOXOXOXOX.XO.        F F Q.J k @ } X.= Y.}.L.S.S.S.S.S.D.S./     ",
"                O / H.( ( ( ( ( ( ( ( ( ' P.|.[.[ 3 3 > & 0 X.q = @ } X.Y.}.D.= & * # # # # @ O     ",
"                    O * & # * # * & * # & v T.|.[.(.(.(.(.(.(.(.(.(.(.(.{.L.j T E R T T b c H $     ",
"                    O + & & & + $ s - @ @ % n T.].}.}.].'.'.].}.'.}.].].P.x + * w K P 0 & & 0 O     ",
"                      B R E R R F #X.X^ T E h d d d d d d = d d d d d d = v R J c.:X%X7.G R H O     ",
"                      = T W .. .~ )././ W ..W c f # = z H H l c k * # j c  .W 2.*Xp e d.2.W G       ",
"                      X = Z B h = /.^.d x v G G 0.u.8.J G G G k } j.y.2.B Z Z &.j.%.@.s.1.B 4       ",
"                        O f N X $ ` ] $ X 9 = 8.*Xd.d.4.& B B w %Xc.u.s.p N h &.j.5 5 7.K 9 +       ",
"                        + T R + - ` ] % > H H x.4.@.i l.F R W L %Xp t i.9.T W J 8.x.l.4.F G         ",
"                          g R G ] ] ~.] x E H d.-.%.u k.G  ...K k.@.@.7.9.T W W F 1.&.D b f         ",
"                            h E v ^..X` h E B 8.4.#.#.6.N R E s j.$.+.4.$.H R R l # * k h           ",
"                            > O @ / ( $ & 9 * w j.%Xd.w * * 9 & K %X$X1.8 = & & * * & O >           ",
"                              , G c l R R W W R 9 < 9 H ..W W W Z < 8 g W W W R W R H +             ",
"                                & f T T T T T T l h z T T b l T b k z l T T T T T h #               ",
"                                  + & + @ @ @ @ @ @ @ @ @ @ @ @ @ @ @ @ @ @ @ @ @ O                 ",
"                                                                                                    "
};
