/* XPM */
static char *da349f6be0a34627b6a630d4aa74695ewhiobiOGk9anrng4[] = {
/* columns rows colors chars-per-pixel */
"50 44 157 2 ",
"   c None",
".  c #3D443E",
"X  c #3C4C3E",
"o  c #3F4740",
"O  c #3F4840",
"+  c #3E5341",
"@  c #3D5C43",
"#  c #3A6A43",
"$  c #3C7546",
"%  c #377F44",
"&  c #387C44",
"*  c #424B43",
"=  c #425144",
"-  c #425A46",
";  c #475048",
":  c #4A544C",
">  c #4F5950",
",  c #525C53",
"<  c #446349",
"1  c #4A664E",
"2  c #406C48",
"3  c #45734D",
"4  c #417A4B",
"5  c #556156",
"6  c #576258",
"7  c #59645A",
"8  c #566B5A",
"9  c #5C695E",
"0  c #57765C",
"q  c #58725C",
"w  c #57785C",
"e  c #587B5E",
"r  c #5F6B60",
"t  c #616D62",
"y  c #647166",
"u  c #607E65",
"i  c #677468",
"p  c #69766A",
"a  c #647D68",
"s  c #6C7A6D",
"d  c #6E7D70",
"f  c #707F72",
"g  c #378646",
"h  c #378846",
"j  c #398947",
"k  c #3A8C49",
"l  c #3E944E",
"z  c #3E994F",
"x  c #3F9E51",
"c  c #418B4F",
"v  c #428B50",
"b  c #4F8C5A",
"n  c #55845D",
"m  c #528C5C",
"M  c #469054",
"N  c #489156",
"B  c #449D55",
"V  c #4B9A5A",
"C  c #42A354",
"Z  c #46A358",
"A  c #4BA45B",
"S  c #46AC59",
"D  c #49AC5C",
"F  c #47B15B",
"G  c #48B45D",
"H  c #578F61",
"J  c #588B61",
"K  c #579462",
"L  c #738275",
"P  c #768678",
"I  c #78877A",
"U  c #758F79",
"Y  c #7C8C7D",
"T  c #7C8C7E",
"R  c #7C8D7E",
"E  c #7D8E7F",
"W  c #7E8E7F",
"Q  c #7A8A7C",
"!  c #6A9271",
"~  c #729678",
"^  c #76947B",
"/  c #739979",
"(  c #57A365",
")  c #58A065",
"_  c #56AC66",
"`  c #4EB662",
"'  c #4DBB63",
"]  c #52B464",
"[  c #50B964",
"{  c #69AB75",
"}  c #67B175",
"|  c #4EC164",
" . c #54C269",
".. c #54C669",
"X. c #54CB6B",
"o. c #58CA6E",
"O. c #56D26D",
"+. c #7E8E80",
"@. c #7F8F81",
"#. c #7F8F80",
"$. c #7E8F80",
"%. c #7F9081",
"&. c #809182",
"*. c #819182",
"=. c #819283",
"-. c #819383",
";. c #829384",
":. c #839485",
">. c #839585",
",. c #849586",
"<. c #859687",
"1. c #859787",
"2. c #869787",
"3. c #819283",
"4. c #869788",
"5. c #879989",
"6. c #879889",
"7. c #879989",
"8. c #889989",
"9. c #88998A",
"0. c #899B8B",
"q. c #899A8B",
"w. c #8A9B8C",
"e. c #8A9C8C",
"r. c #8B9D8D",
"t. c #8C9E8D",
"y. c #8D9F8F",
"u. c #8C9E8E",
"i. c #8A9B8C",
"p. c #8DA08F",
"a. c #8EA08F",
"s. c #8FA191",
"d. c #8EA190",
"f. c #8FA291",
"g. c #8FA191",
"h. c #91A393",
"j. c #90A392",
"k. c #91A493",
"l. c #92A594",
"z. c #92A595",
"x. c #93A695",
"c. c #94A796",
"v. c #92A594",
"b. c #95A897",
"n. c #95A997",
"m. c #96A998",
"M. c #97AA99",
"N. c #98AB9A",
"B. c #99AD9B",
"V. c #99AC9B",
"C. c #9AAD9C",
"Z. c #9AAE9C",
"A. c #9BAF9D",
"S. c #9BAE9D",
"D. c #9AAD9C",
"F. c #9DB19F",
"G. c #9CB09E",
/* pixels */
"                                          . . . . . . . .                                           ",
"                                          > , , , > ; ; ;                                           ",
"                                    * o O i T Q Q L 7 7 , * * *                                     ",
"                                  . t s s P Q Q Q Q L L I 2.6.Q *                                   ",
"                                . . i E Q Q Q T Q Q Q Q &.j.x.6.t ,                                 ",
"                              * * * p Q Q Q Q Q Q Q Q Q Q Q Q &.m.y .                               ",
"                            . L 2.2.E Q Q Q Q Q Q Q Q p y Q Q E ;.2.Q *                             ",
"                            , E m.F.2.I Q Q Q Q Q Q Q s y s P Q Q w.8.r ,                           ",
"                            Q Q :.D.2.Q Q Q T Q Q Q Q Q L 7 d E Q Q ;.V.y .                         ",
"                        . > f L P ;.f.p.Q Q Q Q E Q Q Q L 7 Q m.x.x.b.F.y .                         ",
"                        . : y s d P e.f.2.E Q Q Q Q Q Q I s 2.x.x.x.k.x.9 .                         ",
"                        . ; 7 p d d P :.V.2.Q Q Q Q Q Q &.V.8.Q Q Q Q Q 6 o                         ",
"                      . > , 6 p d d d P :.f.p.Q Q Q Q Q &.A.8.Q L L L L Q Q *                       ",
"                    * * , 7 6 y s d d d P r.j.:.2.&.Q &.8.x.&.L p p p f 6.8.9 ,                     ",
"                  . ; 6 7 7 6 7 r d d d d P :.V.V.x.E j.x.E L s 7 7 9 I Q &.m.y o                   ",
"                . 7 y y 9 6 7 6 r d d d s d P Q E &.j.2.Q L y 9 6 6 r I Q E 2.,.I *                 ",
"              ; : i L f t 9 6 6 9 p d d d d d d s d r.P p L r 5 6 9 i Q Q Q Q w.u., :               ",
"            . : d P Q Q f p 7 6 6 6 i d d d d Q y 7 7 7 r Q y 7 6 s Q Q Q Q Q Q Q Q 7 . *           ",
"          . 6 i P Q Q Q L d i 9 7 7 i d d 1.q.Q L p 6 7 r P L d s P Q Q Q Q Q 8.f.E f y i , . .     ",
"        : 5 p P Q Q Q Q L f d r 7 7 t s d q.f.:.@.P r r y Q @.1.2.*.Q Q Q I L &.w.:.2.&.W t : , >   ",
"      . 9 m.;.Q Q Q Q Q Q P d r 6 7 6 r d P :.B.1.Q Q Q Q +.d.B.A.6.Q Q Q L 9 6 y x.A.m.E I Q N.s . ",
"      . r D.;.Q Q Q Q Q Q Q P s t 6 6 r d P +.1.d.f.f.f.f.z.e.1.*.e.u.Q 8.u.f 6 : s f L j.j.x.A.s . ",
"      * t D.;.Q Q Q Q Q Q Q Q L s r 7 9 i L P P r.m.x.m.m.f.+.d p &.u.,.x.N.E 6 * , 6 t 8.a.u.u.t . ",
"    . > f D.;.Q Q Q Q Q Q Q Q Q P d r 5 7 i d L P +.+.+.Q L t 7 6 7 i b.A.N.*.6 * , 7 7 9 7 9 9 : . ",
"    . , f A.;.Q Q Q Q Q Q Q Q P L d , : 7 r y d L L L p t t > : 5 6 9 f Q w.h.I r : , 6 6 7 6 6 : . ",
"    : , p y.,.;.;.;.*.Q Q Q P d p y ; o > > 5 y i i s r 5 > > > 9 9 6 6 i Q x.8.f * ; 5 e 9 6 6 : . ",
". , P r 6 t w.A.D.A.j.Q Q P d t > O O o o o O O > 7 7 7 , O r Q Q y 6 7 6 t I Q f * . @  .K 6 6 : . ",
". , I t 6 6 s L L f Q j.h.;.t 7 > o i L y t y t > ; ; ; > r L Q Q &.Q 7 6 9 t i 9 * . + B V b 8 : . ",
". 5 ^ q 6 6 6 6 6 , p g.h.@.7 7 , o +.x.%.%.+.Q 7 ; ; ; > Q Q +.&.f.u.9 7 7 , 6 , : * O % x A 8 : . ",
". 3 o.e , 9 7 7 7 6 7 r r 7 7 7 , o p 1.A.%.Q Q Q P P P Q Q Q %.V.8.P 7 7 7 7 6 r L 7 X % B D 8 : . ",
". 2 ' _ J 7 6 7 6 7 7 7 , q ( _ b O 7 d q.d.e.+.Q Q Q Q Q +.1.e.P P L 9 , r ) n 9 P 7 X @ k A 8 : . ",
". 2 F X._ 6 7 6 7 7 6 7 q K O.o.A o > r L d.f.%.%.%.%.%.%.%.f.e.7 s P 7 9 J X.K 9 P 7 . . 4 Z 8 : . ",
". 2 D G V 6 6 7 6 7 6 7 _ O.O.J , . , 7 7 L :.V.D.D.D.D.D.D.w.P 7 d L 7 ) X.G n 7 P 7 . . # j       ",
"  $ z S N : : : 6 6 e ( [ ] K q , . > 7 7 d %.8.8.r.w.w.8.w.%.L 7 t a ) ] ` m u d T 7 .             ",
"    h C v . . * , 8 m X.G N , 6 : o : , 7 s P Q Q P Q Q Q I P f t 7 0 o.| Z 5 t L d 6 .             ",
"h h h j j       * N D G l $ o * * . * ; 6 7 t Q Q Q Q Q Q Q i t P i e X.| B = * * * *               ",
"                  k z z k &           * : , t Q Q ^ } / Q Q y 6 6 > 1 ' S k                         ",
"                  g g g h h             . > 7 d f ! X.{ U L r > . . @ S B g                         ",
"                  j h                     O * * * < F ..] ; * O       D                             ",
"                                                  2 D X...                                          ",
"                                                    S | O.                                          ",
"                                                    j Z G                                           ",
"                                                  h g C F                                           ",
"                                                g h g C F                                           "
};
