/* XPM */
static char *f6fd045fe0574cc6c495c18153b436c821AHClmoesOXPUDY[] = {
/* columns rows colors chars-per-pixel */
"50 50 170 2 ",
"   c None",
".  c #3D453E",
"X  c #3D4B3F",
"o  c #3F4740",
"O  c #3F4A40",
"+  c #3D5240",
"@  c #3D5842",
"#  c #3B6242",
"$  c #3C6C44",
"%  c #3A7645",
"&  c #397D45",
"*  c #434C44",
"=  c #445146",
"-  c #415B45",
";  c #475048",
":  c #4A544C",
">  c #4E584F",
",  c #4F5950",
"<  c #525D53",
"1  c #416046",
"2  c #4B604F",
"3  c #416C48",
"4  c #4A6A4F",
"5  c #42724A",
"6  c #417D4C",
"7  c #4F6151",
"8  c #556156",
"9  c #576258",
"0  c #59645A",
"q  c #566D59",
"w  c #5C695E",
"e  c #4A7451",
"r  c #517457",
"t  c #507856",
"y  c #56725B",
"u  c #567C5C",
"i  c #587F5F",
"p  c #5F6B60",
"a  c #5E7261",
"s  c #5E7D63",
"d  c #616E62",
"f  c #647166",
"g  c #637A67",
"h  c #677468",
"j  c #69766A",
"k  c #6C7A6E",
"l  c #6E7D70",
"z  c #707F72",
"x  c #378746",
"c  c #378846",
"v  c #388847",
"b  c #3B8B4A",
"n  c #3D934D",
"m  c #3E994F",
"M  c #3F9C51",
"N  c #418B4F",
"B  c #40924F",
"V  c #458C53",
"C  c #55835D",
"Z  c #58815F",
"A  c #528C5D",
"S  c #449C54",
"D  c #4D9259",
"F  c #4C9D5B",
"G  c #52975F",
"H  c #519E5F",
"J  c #42A355",
"K  c #46A658",
"L  c #4BA35B",
"P  c #46AC5A",
"I  c #4DAB5E",
"U  c #47B05A",
"Y  c #49B35D",
"T  c #5A8361",
"R  c #578C61",
"E  c #588D61",
"W  c #579662",
"Q  c #589763",
"!  c #559A62",
"~  c #6C806E",
"^  c #758477",
"/  c #738274",
"(  c #768578",
")  c #768678",
"_  c #778679",
"`  c #778779",
"'  c #768678",
"]  c #78877A",
"[  c #788779",
"{  c #788779",
"}  c #79897B",
"|  c #78887A",
" . c #7A897C",
".. c #7A8A7C",
"X. c #7B8B7D",
"o. c #7A8B7C",
"O. c #7B8C7D",
"+. c #7C8C7E",
"@. c #7D8D7F",
"#. c #7C8D7E",
"$. c #7D8E7F",
"%. c #7E8E7F",
"&. c #7A8A7C",
"*. c #6B9573",
"=. c #75927A",
"-. c #729A79",
";. c #56A564",
":. c #54AB64",
">. c #5BA769",
",. c #4DB261",
"<. c #4DBB62",
"1. c #55B366",
"2. c #51BA65",
"3. c #57B268",
"4. c #56BB69",
"5. c #58BE6C",
"6. c #69AC75",
"7. c #4EC365",
"8. c #51C366",
"9. c #55C46A",
"0. c #59C46D",
"q. c #55CB6B",
"w. c #56D36E",
"e. c #7E8F80",
"r. c #7F8F81",
"t. c #7D8E80",
"y. c #7E8F80",
"u. c #7F9081",
"i. c #819182",
"p. c #819283",
"a. c #829384",
"s. c #829284",
"d. c #839485",
"f. c #839585",
"g. c #849586",
"h. c #859687",
"j. c #869687",
"k. c #829384",
"l. c #869788",
"z. c #869888",
"x. c #879989",
"c. c #879888",
"v. c #88998A",
"b. c #899A8B",
"n. c #8B9C8D",
"m. c #8B9E8D",
"M. c #8C9E8E",
"N. c #8D9F8F",
"B. c #8D9E8F",
"V. c #8C9D8E",
"C. c #8A9C8C",
"Z. c #8DA08F",
"A. c #8EA190",
"S. c #8FA190",
"D. c #90A392",
"F. c #90A292",
"G. c #90A291",
"H. c #91A493",
"J. c #93A795",
"K. c #92A594",
"L. c #94A796",
"P. c #94A696",
"I. c #92A594",
"U. c #95A997",
"Y. c #96A997",
"T. c #97AA99",
"R. c #96A898",
"E. c #98AB9A",
"W. c #99AD9B",
"Q. c #9AAE9C",
/* pixels */
"                                          . . o . . . . .                                           ",
"                                          > > > > : ; * *                                           ",
"                                    o . * p z l l j < < , o o .                                     ",
"                                    < 0 0 z ..+...( k j j j j f *                                   ",
"                                  * d ^ ( | ......| { | @.Z.G.i.<                                   ",
"                                . * h ..................@.C.m.g./ 0                                 ",
"                              , > < k ................( ^ | ..i.L.k >                               ",
"                            * / g.l.@...............| j j | | @.i.g.| :                             ",
"                            8 t.L.Q.g...............| k h l ^ ..@.x.g.d <                           ",
"                            / ..x.E.l.+...............| z p l +.o.t.g.Z.f .                         ",
"                          8 / / ..b.m.b.@.| ............/ 0 { m.S.m.S.Q.f .                         ",
"                        . > j z / ..m.Z.i.@.............( h s.L.J.U.U.U.f .                         ",
"                        . ; w j z / i.C.S.i.o...........@.d.j.c.c.c.c.g.0 .                         ",
"                        * : 0 j k l / %.D.b.i.o.| ....| s.Q.b.| ( | ^ ^ f 8                         ",
"                      * > < 0 j k l / ^ u.Z.Z.@.@.@.| O.d.E.c.( / k l / i.@.>                       ",
"                    * ; < 0 0 d j l l l ^ c.Z.b.c.a.@.a.b.Z.u./ h f j / d.x.f 8                     ",
"                  * ; 8 0 0 0 0 p k l l l ( a.R.T.S.u.B.S.t./ j 0 0 d ^ +.i.G.j *                   ",
"                . 8 d f 0 8 0 0 p l l l l / ( u.u.d.S.l.t./ h p 0 0 p { +.@.g.i.z ;                 ",
"                : f l l d 0 8 0 p j k l l l l / l ( n.| l ~ f 0 0 0 f { | ..@.b.l.< ;               ",
"            . : p / { ( z f 0 0 0 p g l l l ~ / h p h f f / f 8 0 j / | ....| i.i.k < . .           ",
"            > w / | o.../ j d w 8 0 h l l ..t...k d 0 8 d ( l f f / | +.....O.i.g.@.h < < >         ",
"          ; p k ( | ..../ l j w 0 0 f l l l.n.t.{ k w w d ( | ( { | +.| ....| c.m.i.{ z z 0 * *     ",
"        8 h / ( ........^ / k p 0 0 p h l d.B.n.i.^ h h k ..g.n.m.i.......( k / i.C.m.b.+.j 0 h 0   ",
"      . p U.i...........o.( l f 0 0 0 p l ( a.L.x.t.@.t.@.u.S.R.U.b.%...@.| p 0 d m.L.G.a.@.d.L.k o ",
"      . p U.d.| ..........| ( k d 0 0 d l ( t.l.m.D.D.L.S.D.n.d.%.C.V.@.c.C./ 0 , k l ( m.G.L.Q.k . ",
"      * f U.g.o.............| / k p 0 0 j / ( ..n.U.L.L.J.D.u./ k %.V.d.D.L.@.0 * < 0 d l.n.n.n.f . ",
"    o , k U.g.| ..............| / k p 0 w j l z ..i.i.i.t.( h w w d l G.Q.U.@.0 * < 8 0 d f f f < . ",
"    . < / E.g.................| / k 8 < 0 d h l / ^ ( l j f 8 > < 0 d ..c.Z.C.k < , < 0 0 0 0 8 ; . ",
"    * < k D.g.@.@.@.@.......( / l h > ; < 0 p h l l l d 0 8 , : 0 0 0 p / i.D.i.k ; : < q 0 0 0 : . ",
"  , d 0 f ( b.G.S.S.x.| ..| / h p < * . ; ; : < 0 d d 0 8 : 8 d j p 0 0 w k c.a.z ; * 8 W C 8 8 ; . ",
". < / d 0 w i.Z.Z.S.n.i.i...k p , o : : : : : : , < < < < : h ..| l f 0 0 p / / j * . - :.! q 0 > . ",
". 8 ^ d 0 0 f k k k ( Z.L.i.d 0 , * k ..j h j j < ; ; ; > h / ..O.s.@.w 0 0 d d w * . + B S D q : . ",
". 7 *.a 0 0 8 8 8 0 j l.b.+.0 0 < * | G.g.t...| p , > > 0 ( ..+.a.m.v.w 0 8 0 0 8 < * + x M L q ; o ",
". e 5.T 0 8 0 0 0 0 0 d d 0 0 0 , * g g.R.g.....^ / ^ / ^ | +.a.L.v.{ 0 0 0 0 8 0 l 8 + & M L q : o ",
"o 5 <.;.R 0 8 0 0 0 0 0 0 y Q ! C O 0 / b.m.b.....| | ....+.g.b.+.{ / 0 8 q W i d / 0 o # V L q ; o ",
". 3 Y 8.;.0 0 0 0 8 0 8 q E 0.9.F = < f | m.G.i.u.u.t.u.t.i.m.b.d z / p w C 4.E p ( 0 o X & L q : o ",
". 3 P <.L 0 0 0 0 0 0 0 Q 4.w.;.r o > 0 f ..b.S.D.D.D.D.D.D.m.+.p k / 0 E 3.2.A w ( 0 . . $ n       ",
"o $ J U D 8 , < 0 0 q C 1.9.3.Z , * < 8 0 l i.L.L.U.L.L.L.L.g./ 0 j k T ;.8.L C h ( 0 o . $ c       ",
"  & n K V = * : < 0 i 1.<.I C 0 < o > 8 0 l ..a.i.d.i.d.i.d.@./ p d g 3.2.I t g / ( 0 o             ",
"  v v M b o . * , r G 8.P V > > ; * ; < 0 h / { | ..| ..| | / k f 0 u q.7.L 7 w f f < o             ",
"x c c v v       = V P P n % X . * . . * 8 0 d ....o.o.o.....h p ~ d u 9.<.S + * * *                 ",
"                  b m m b &           * ; < d { ..-.6.-...| h 0 0 , 4 Y P n @                       ",
"                  v v v c v             * , 0 z / *.0.6.=.~ p < * o 1 L S x                         ",
"                  c x                     * ; > > e ,.5.>.7 ; *       P J                           ",
"                                            . . . 3 P 8.2.- . .       U                             ",
"                                                    P 8.q.                                          ",
"                                                    J Y 7.                                          ",
"                                                    v J Y                                           ",
"                                                  x v S U                                           ",
"                                                x x v J U                                           "
};
